<svg height="512pt" preserveAspectRatio="xMidYMid meet" viewBox="0 0 512 512" width="512pt" xmlns="http://www.w3.org/2000/svg"><g transform="matrix(.1 0 0 -.1 0 512)"><path d="m2306 4215c-694-113-1236-631-1388-1328-19-89-22-131-22-327s3-238 22-327c146-670 646-1169 1316-1315 138-30 492-33 631-5 684 139 1203 659 1342 1342 28 139 25 493-5 631-145 668-646 1171-1309 1315-130 28-454 35-587 14zm419-65c491-55 905-306 1172-712 347-527 347-1229 0-1756-273-414-701-668-1205-714-348-32-715 61-1010 255-800 527-962 1633-347 2367 340 405 868 618 1390 560z"/><path d="m2431 3374c-172-46-321-196-367-368-22-82-18-209 10-287 76-215 264-351 486-351 196 0 372 110 459 286 38 78 50 133 51 227 0 228-161 435-385 494-73 19-182 18-254-1zm519-688c0-8-20-40-44-73-144-196-430-228-628-71-40 32-108 123-108 145 0 10 82 13 390 13 326 0 390-2 390-14z"/><path d="m2103 2255c-75-16-161-60-225-115-100-86-172-239-166-351 3-52 4-54 33-54s29 1 41 75c6 41 17 87 24 103l13 27h737 737l13-27c7-16 18-62 24-103 12-74 12-75 41-75s30 2 33 54c6 112-66 265-166 351-66 56-150 99-229 115-94 20-818 20-910 0z"/></g></svg>