<svg height="512pt" preserveAspectRatio="xMidYMid meet" viewBox="0 0 512 512" width="512pt" xmlns="http://www.w3.org/2000/svg"><g transform="matrix(.1 0 0 -.1 0 512)"><path d="m2435 4143c-196-19-406-75-516-139-135-79-270-248-338-424-51-132-61-203-71-520-6-162-12-301-15-309-3-7-1-19 5-26 8-9 8-58-1-165-6-84-9-173-5-197 5-39 3-45-17-53-21-8-21-9-1-9 18-1 22-11 34-107 12-99 12-108-4-120-16-11-16-13 5-16 20-3 26-16 50-108 113-427 290-669 677-927 163-109 318-139 463-92 74 24 307 143 392 201 137 93 258 222 363 388 35 56 113 215 144 295 30 78 37 87 60 75 30-16 35-11 12 10-26 25-26 26-6 81 8 24 19 62 24 84 27 119 45 177 81 253 37 77 45 86 104 123 35 22 66 47 69 55 10 26-23 27-67 1-43-25-74-63-117-142l-22-40 6 100c4 55 13 122 21 149s15 71 15 97c0 27 9 111 20 186 37 263 43 352 32 474-44 467-349 717-994 814-89 14-300 18-403 8zm-60-507c294-68 386-75 678-54 245 17 358-5 456-88 78-65 132-190 150-349 32-264 34-352 12-580-22-229-52-438-75-515-24-79-112-256-148-296-19-21-54-75-77-118-23-44-55-98-71-122-41-58-130-154-144-154-7 0-7 3-1 8 18 13 68 166 81 252 18 107 10 162-27 205-49 56-111 75-276 85-94 6-151 6-163 0-32-17-85-12-105 10-19 21-15 25 29 32 21 3 63 64 52 75-3 4-16-3-29-15-65-61-188-53-244 15-12 15-25 25-28 21-9-8 18-70 40-91 9-10 16-19 14-21s-69 5-149 16c-281 38-398 10-430-103-22-77 0-295 41-404l19-50-44 49c-53 58-135 204-177 312-17 43-46 104-65 136-85 139-134 381-134 663 0 88 4 185 10 215 17 102 126 531 153 606 52 144 143 239 270 280 64 21 247 12 382-20zm75-1802c70-24 82-25 185-18 131 9 283 8 345-3 35-6 12-9-110-15-85-3-195-10-245-13-81-6-103-4-214 24-69 17-139 31-155 32-17 0-53 7-81 15-48 13-44 13 75 9 101-4 140-10 200-31zm-346-51c42-85 91-148 156-198 68-52 181-111 230-120 34-7 34-6 15 10s-19 16 15 9c19-4 53-6 75-5 45 2 42-8-7-19-28-7-24-8 27-9 166-2 360 110 448 261l34 57 23-40c30-54 25-144-11-215-146-279-184-351-198-365-34-36-176-118-186-108-14 14-19 158-7 200 5 19 5 44 1 57-8 20-14 22-97 22-49 0-113 5-142 10-35 7-57 7-65 0-7-6-15-50-18-103-6-97-26-161-51-170-10-4-44 17-92 55-81 65-98 93-134 213-10 33-37 110-60 170-36 94-43 122-44 190s3 86 22 118c13 20 27 37 31 37s19-26 35-57zm411-34c55-6 129-12 163-14 35-2 82-7 105-11l42-7-30-9c-76-21-392 1-475 34-24 10-24 11-5 19 11 5 38 6 60 4 22-3 85-10 140-16z"/><path d="m2000 3161c-69-14-161-75-186-122-7-15-10-30-5-33 4-3 41 11 82 32 68 34 81 37 154 36 54-1 109-10 170-28 106-31 125-32 155-8 29 23 22 62-16 86-56 37-251 57-354 37z"/><path d="m3104 3111c-78-13-123-31-140-55-18-28-9-55 22-66 24-9 123 3 170 20 39 15 180 12 220-5 19-8 56-32 82-55 27-22 54-40 60-40 22 0 12 38-21 81-40 54-99 94-154 108-60 16-179 21-239 12z"/><path d="m1984 2820c-73-24-144-82-173-143-22-45-28-93-11-82 6 3 10 14 10 23 1 27 66 109 109 136 57 36 146 59 198 52 110-15 212-94 248-191 23-63 40-82 31-36-33 177-239 298-412 241z"/><path d="m2030 2738c-73-37-111-114-96-193 5-24 14-39 29-44 23-9 243-51 264-51 20 0 63 84 63 124 0 41-22 101-48 129-27 30-88 57-129 57-22 0-59-10-83-22zm44-54c19-19 20-25 3-48-19-26-61-18-65 12-7 44 32 67 62 36z"/><path d="m3086 2739c-82-19-166-87-202-164-13-27-24-57-23-65 0-8 10 5 22 30 33 69 113 144 176 165 65 21 179 17 229-9 62-32 114-89 148-161 32-67 33-68 34-34 0 50-45 133-95 175-81 66-182 88-289 63z"/><path d="m3072 2663c-43-21-79-64-92-111-15-54-12-81 11-130l22-44 54 6c30 3 94 9 144 13 100 7 103 9 114 84 11 72-30 150-97 185-36 19-115 17-156-3zm38-58c26-32-13-81-47-59-24 15-27 38-8 58 20 20 39 20 55 1z"/><path d="m2791 1395c-35-19-58-35-50-35s41 16 74 35c78 45 59 45-24 0z"/><path d="m2698 1353c7-3 16-2 19 1 4 3-2 6-13 5-11 0-14-3-6-6z"/><path d="m1320 2696c0-8 20-31 44-51 48-39 80-85 95-138l9-32 1 30c1 42-50 146-88 178-36 30-61 35-61 13z"/><path d="m1458 2253c6-2 18-2 25 0 6 3 1 5-13 5s-19-2-12-5z"/></g></svg>